<?xml version="1.0" encoding="utf-8"?>
<!-- Generator: Adobe Illustrator 16.0.0, SVG Export Plug-In . SVG Version: 6.00 Build 0)  -->
<!DOCTYPE svg PUBLIC "-//W3C//DTD SVG 1.1//EN" "http://www.w3.org/Graphics/SVG/1.1/DTD/svg11.dtd">
<svg version="1.1" id="Capa_1" xmlns="http://www.w3.org/2000/svg" xmlns:xlink="http://www.w3.org/1999/xlink" x="0px" y="0px"
	 width="400px" height="400px" viewBox="0 0 400 400" enable-background="new 0 0 400 400" xml:space="preserve">
<polygon fill="#FFFFFF" stroke="#454545" stroke-width="5" stroke-miterlimit="10" points="354.354,318.066 198.499,318.017 
	42.645,317.97 120.613,183.452 198.582,48.934 276.465,183.5 "/>
<rect x="195" y="277.001" transform="matrix(-0.0048 -1 1 -0.0048 -118.038 518.5317)" fill="#FFFFFF" width="8" height="82"/>
<rect x="117" y="143.001" transform="matrix(0.8598 0.5106 -0.5106 0.8598 110.9143 -35.9888)" fill="#FFFFFF" width="7.999" height="82.001"/>
<rect x="272" y="142.001" transform="matrix(-0.8539 0.5204 -0.5204 -0.8539 606.9166 195.6409)" fill="#FFFFFF" width="8.001" height="82"/>
<polygon fill="#FFFFFF" stroke="#454545" stroke-width="5" stroke-miterlimit="10" points="278.427,184.316 200.499,184.342 
	122.572,184.365 161.557,251.624 200.541,318.883 239.482,251.6 "/>
<rect x="198.749" y="164.85" transform="matrix(-0.0049 1 -1 -0.0049 387.0771 -14.4925)" fill="#FFFFFF" stroke="#FFFFFF" stroke-width="5" stroke-miterlimit="10" width="4" height="40.999"/>
<rect x="159.75" y="231.848" transform="matrix(0.8598 -0.5106 0.5106 0.8598 -106.1684 117.951)" fill="#FFFFFF" stroke="#FFFFFF" stroke-width="5" stroke-miterlimit="10" width="4" height="41.001"/>
<rect x="237.25" y="232.349" transform="matrix(-0.854 -0.5203 0.5203 -0.854 312.0223 593.2568)" fill="#FFFFFF" stroke="#FFFFFF" stroke-width="5" stroke-miterlimit="10" width="4" height="41"/>
<polygon fill="#FFFFFF" stroke="#454545" stroke-width="5" stroke-miterlimit="10" points="238,251.692 200.499,251.68 163,251.669 
	181.76,219.038 200.52,186.409 219.26,219.051 "/>
<rect x="198.624" y="241.426" transform="matrix(-0.0049 -1 1 -0.0049 -51.0731 452.5263)" fill="#FFFFFF" stroke="#FFFFFF" stroke-width="5" stroke-miterlimit="10" width="2" height="20.499"/>
<rect x="181.125" y="207.926" transform="matrix(0.8599 0.5104 -0.5104 0.8599 136.8761 -62.3997)" fill="#FFFFFF" stroke="#FFFFFF" stroke-width="5" stroke-miterlimit="10" width="1.999" height="20.5"/>
<rect x="217.875" y="207.676" transform="matrix(-0.8541 0.5201 -0.5201 -0.8541 519.1594 290.2252)" fill="#FFFFFF" stroke="#FFFFFF" stroke-width="5" stroke-miterlimit="10" width="2" height="20.5"/>
</svg>
